<svg width="16" height="16" viewBox="0 0 16 16" fill="none" xmlns="http://www.w3.org/2000/svg">
<g clip-path="url(#clip0_1961_17883)">
<path d="M10.0157 4.39163C9.06493 4.39163 8.18873 4.37331 7.31252 4.40995C7.16338 4.40995 6.92103 4.62976 6.88374 4.77631C6.64139 5.74715 5.03812 6.91949 4.0687 6.97444C2.52136 7.06603 1.32823 6.58977 0.507955 5.28921C-0.610604 3.47574 0.209672 1.22265 2.07394 0.325078C4.03142 -0.60913 6.34311 0.599845 6.90239 2.3034C6.93967 2.43163 7.23795 2.54153 7.40574 2.55985C8.82258 2.57817 10.2394 2.57817 11.6376 2.57817C12.8867 2.57817 14.1171 2.57817 15.3661 2.57817C15.9068 2.57817 15.9814 2.66976 16 3.18266C16 3.23761 16 3.31088 16 3.36584C16 4.31836 16 4.31836 15.0306 4.40995C14.7509 4.42827 14.7137 4.59313 14.7137 4.81294C14.7137 5.4907 14.695 6.18678 14.7137 6.86454C14.7137 7.19426 14.6391 7.3408 14.2476 7.3408C12.9426 7.3408 12.9426 7.35912 12.9426 6.07687C12.9426 5.67388 12.9426 5.25257 12.9426 4.84958C12.9426 4.355 12.5698 4.42827 12.2528 4.40995C11.88 4.39163 11.8613 4.59313 11.8613 4.8679C11.8613 5.54566 11.8613 6.2051 11.8613 6.88285C11.8613 7.21258 11.7308 7.3408 11.3953 7.3408C9.97842 7.37744 9.97842 7.39575 9.97842 6.0036C10.0157 5.4907 10.0157 4.95949 10.0157 4.39163ZM3.54671 1.80882C2.72643 1.73555 1.85023 2.55985 1.85023 3.5307C1.86887 4.44659 2.6705 5.28921 3.58399 5.23425C4.55341 5.1793 5.31776 4.4649 5.31776 3.51238C5.31776 2.63312 4.57205 1.7905 3.54671 1.80882Z" fill="#181A25"/>
<path d="M5.98608 11.584C6.95579 11.584 7.8509 11.6023 8.74602 11.5657C8.87655 11.5657 9.06304 11.364 9.10033 11.2356C9.51059 9.98885 10.7973 9.03544 12.1213 9.0171C13.9116 8.98043 15.1051 9.69549 15.7205 11.144C16.5037 12.9408 15.5526 14.8843 13.9675 15.6543C12.1213 16.5344 10.0327 15.6543 9.26817 14.0042C9.02574 13.4908 8.76466 13.4175 8.26116 13.4175C5.7623 13.4358 3.24479 13.4358 0.745929 13.4358C0.0559447 13.4358 0 13.3808 0 12.7024C0 12.6657 0 12.6474 0 12.6107C0 11.6757 0 11.6573 0.951059 11.6023C1.23078 11.584 1.28673 11.4556 1.28673 11.2173C1.28673 10.5389 1.30538 9.84217 1.28673 9.16378C1.26808 8.79708 1.36132 8.6504 1.77158 8.6504C3.03966 8.6504 3.03966 8.6504 3.03966 9.89718C3.03966 10.3005 3.05831 10.6856 3.03966 11.0889C3.00236 11.5106 3.18885 11.6023 3.58046 11.6023C3.99072 11.6023 4.1772 11.5106 4.1399 11.0706C4.10261 10.4472 4.1399 9.82384 4.12126 9.20045C4.10261 8.81542 4.23315 8.6504 4.66206 8.6504C6.00473 8.6504 6.00473 8.63207 6.00473 9.95218C5.98608 10.4839 5.98608 10.9973 5.98608 11.584ZM12.4384 14.1692C13.2775 14.2425 14.154 13.4175 14.1354 12.4641C14.1354 11.5473 13.3335 10.7039 12.4011 10.7589C11.45 10.7956 10.6668 11.4923 10.6481 12.4641C10.6668 13.3441 11.4127 14.1875 12.4384 14.1692Z" fill="#181A25"/>
<path d="M3.42152 1.73495C4.44429 1.71649 5.20673 2.56575 5.18813 3.45193C5.18813 4.41195 4.4257 5.13197 3.45871 5.18736C2.54751 5.24275 1.74789 4.39349 1.72929 3.47039C1.71069 2.51036 2.6033 1.6611 3.42152 1.73495Z" stroke="#181A25" stroke-width="0.373396" stroke-miterlimit="10"/>
<path d="M12.5687 14.2654C11.5513 14.284 10.7929 13.4298 10.8114 12.5386C10.8299 11.5545 11.6068 10.8489 12.5502 10.8117C13.4751 10.7746 14.252 11.6102 14.2705 12.5386C14.2705 13.5041 13.4011 14.3397 12.5687 14.2654Z" stroke="#181A25" stroke-width="0.373396" stroke-miterlimit="10"/>
</g>
<defs>
<clipPath id="clip0_1961_17883">
<rect width="16" height="16" fill="white"/>
</clipPath>
</defs>
</svg>
