<svg width="24" height="24" viewBox="0 0 24 24" fill="none" xmlns="http://www.w3.org/2000/svg">
<g id="Freighter Wallet" clip-path="url(#clip0_1961_17374)">
<g id="Group">
<path id="Vector" d="M15.0236 6.58745C13.5974 6.58745 12.2831 6.55997 10.9688 6.61493C10.7451 6.61493 10.3815 6.94465 10.3256 7.16446C9.96208 8.62073 7.55718 10.3792 6.10305 10.4617C3.78204 10.599 1.99235 9.88465 0.761932 7.93381C-0.915907 5.21361 0.314509 1.83398 3.11091 0.487617C6.04712 -0.913695 9.51466 0.899768 10.3536 3.4551C10.4095 3.64744 10.8569 3.8123 11.1086 3.83978C13.2339 3.86725 15.3591 3.86725 17.4564 3.86725C19.33 3.86725 21.1756 3.86725 23.0492 3.86725C23.8602 3.86725 23.972 4.00464 24 4.77399C24 4.85642 24 4.96632 24 5.04875C24 6.47754 24 6.47754 22.5459 6.61493C22.1264 6.6424 22.0705 6.88969 22.0705 7.21941C22.0705 8.23605 22.0425 9.28017 22.0705 10.2968C22.0705 10.7914 21.9586 11.0112 21.3714 11.0112C19.4139 11.0112 19.4139 11.0387 19.4139 9.11531C19.4139 8.51082 19.4139 7.87885 19.4139 7.27437C19.4139 6.5325 18.8546 6.6424 18.3792 6.61493C17.82 6.58745 17.792 6.88969 17.792 7.30184C17.792 8.31848 17.792 9.30764 17.792 10.3243C17.792 10.8189 17.5962 11.0112 17.0929 11.0112C14.9676 11.0662 14.9676 11.0936 14.9676 9.0054C15.0236 8.23605 15.0236 7.43923 15.0236 6.58745ZM5.32006 2.71323C4.08965 2.60332 2.77534 3.83978 2.77534 5.29604C2.8033 6.66988 4.00575 7.93381 5.37599 7.85138C6.83012 7.76895 7.97664 6.69736 7.97664 5.26857C7.97664 3.94968 6.85808 2.68575 5.32006 2.71323Z" fill="white"/>
<path id="Vector_2" d="M8.97912 17.375C10.4337 17.375 11.7764 17.4025 13.119 17.3475C13.3148 17.3475 13.5946 17.045 13.6505 16.8525C14.2659 14.9823 16.196 13.5522 18.182 13.5247C20.8674 13.4697 22.6576 14.5423 23.5807 16.7149C24.7555 19.4102 23.3289 22.3254 20.9513 23.4805C18.182 24.8006 15.0491 23.4805 13.9022 21.0053C13.5386 20.2353 13.147 20.1252 12.3917 20.1252C8.64345 20.1527 4.86719 20.1527 1.11889 20.1527C0.083917 20.1527 0 20.0702 0 19.0526C0 18.9976 0 18.9701 0 18.9151C0 17.5125 0 17.485 1.42659 17.4025C1.84617 17.375 1.93009 17.1825 1.93009 16.825C1.93009 15.8074 1.95806 14.7623 1.93009 13.7447C1.90212 13.1946 2.04198 12.9746 2.65737 12.9746C4.55949 12.9746 4.55949 12.9746 4.55949 14.8448C4.55949 15.4498 4.58746 16.0274 4.55949 16.6324C4.50355 17.265 4.78327 17.4025 5.37069 17.4025C5.98608 17.4025 6.2658 17.265 6.20986 16.6049C6.15391 15.6699 6.20986 14.7348 6.18189 13.7997C6.15391 13.2222 6.34972 12.9746 6.99308 12.9746C9.00709 12.9746 9.00709 12.9471 9.00709 14.9273C8.97912 15.7249 8.97912 16.4949 8.97912 17.375ZM18.6575 21.2528C19.9163 21.3628 21.231 20.1252 21.203 18.6951C21.203 17.32 20.0002 16.0549 18.6016 16.1374C17.175 16.1924 16.0002 17.2375 15.9722 18.6951C16.0002 20.0152 17.1191 21.2803 18.6575 21.2528Z" fill="white"/>
<path id="Vector_3" d="M5.13252 2.60243C6.66668 2.57474 7.81033 3.84862 7.78244 5.17789C7.78244 6.61793 6.63879 7.69796 5.18831 7.78104C3.82151 7.86412 2.62207 6.59024 2.59418 5.20558C2.56628 3.76554 3.90519 2.49166 5.13252 2.60243Z" stroke="black" stroke-width="0.373396" stroke-miterlimit="10"/>
<path id="Vector_4" d="M18.8533 21.3971C17.3272 21.425 16.1895 20.1438 16.2173 18.8069C16.245 17.3307 17.4104 16.2723 18.8255 16.2166C20.2129 16.1609 21.3782 17.4143 21.406 18.8069C21.406 20.2552 20.1019 21.5085 18.8533 21.3971Z" stroke="black" stroke-width="0.373396" stroke-miterlimit="10"/>
</g>
</g>
<defs>
<clipPath id="clip0_1961_17374">
<rect width="24" height="24" fill="white"/>
</clipPath>
</defs>
</svg>
