<svg width="406" height="74" viewBox="0 0 406 74" fill="none" xmlns="http://www.w3.org/2000/svg">
<path d="M124.046 55.6C114.626 55.6 108.386 49.72 108.386 40.84H113.486C113.486 46.84 117.686 50.8 124.046 50.8C129.866 50.8 133.706 47.8 133.706 43.3C133.706 40.12 130.826 38.08 123.386 35.92C114.386 33.28 110.846 30.1 110.846 24.76C110.846 17.86 116.126 13.24 124.046 13.24C131.846 13.24 137.666 18.16 138.686 25.48L133.946 26.62C133.046 21.46 129.086 18.04 124.046 18.04C119.366 18.04 116.246 20.74 116.246 24.76C116.246 27.52 118.586 29.2 124.646 30.94C135.086 34.12 139.106 37.6 139.106 43.3C139.106 50.68 133.106 55.6 124.046 55.6ZM161.604 55.6C152.544 55.6 146.544 49.36 146.544 40C146.544 30.64 152.544 24.4 161.604 24.4C170.664 24.4 176.664 30.64 176.664 40C176.664 49.36 170.664 55.6 161.604 55.6ZM161.604 51.4C167.784 51.4 171.864 46.84 171.864 40C171.864 33.16 167.784 28.6 161.604 28.6C155.424 28.6 151.344 33.16 151.344 40C151.344 46.84 155.424 51.4 161.604 51.4ZM186.623 55V25H191.423V29.02C193.643 26.26 197.423 24.4 200.903 24.4C208.823 24.4 214.103 29.62 214.103 37.48H209.603C209.603 32.14 205.943 28.6 200.423 28.6C195.023 28.6 191.423 32.14 191.423 37.48V55H186.623ZM236.721 55.6C227.661 55.6 221.661 49.36 221.661 40C221.661 30.64 227.661 24.4 236.721 24.4C245.781 24.4 251.781 30.64 251.781 40C251.781 49.36 245.781 55.6 236.721 55.6ZM236.721 51.4C242.901 51.4 246.981 46.84 246.981 40C246.981 33.16 242.901 28.6 236.721 28.6C230.541 28.6 226.461 33.16 226.461 40C226.461 46.84 230.541 51.4 236.721 51.4ZM274.28 55.6C265.94 55.6 260.3 51.28 260.18 44.8H264.68C264.8 48.76 268.64 51.4 274.28 51.4C279.56 51.4 283.04 49.48 283.04 46.54C283.04 44.08 280.82 42.82 273.86 41.32C264.62 39.4 262.28 37.72 262.28 32.74C262.28 27.4 266.6 24.4 274.28 24.4C279.92 24.4 284.78 27.4 286.4 31.84L282.08 32.98C281 30.34 277.88 28.6 274.28 28.6C269.66 28.6 267.02 29.92 267.02 32.26C267.02 34.66 268.58 35.62 274.82 36.94C284.66 38.86 287.78 41.14 287.78 46.42C287.78 51.94 282.38 55.6 274.28 55.6ZM300.199 55L295.879 25H300.679L302.779 40.54L303.799 49.72L309.139 27.04H314.539L319.819 49.72L320.839 40.54L322.939 25H327.739L323.479 55H316.939L311.839 33.1L306.679 55H300.199ZM348.377 55.6C339.617 55.6 333.737 49.36 333.737 40C333.737 30.64 339.617 24.4 348.377 24.4C352.457 24.4 356.717 26.68 359.057 30.04V25H363.857V55H359.057V49.96C356.717 53.32 352.457 55.6 348.377 55.6ZM348.857 51.4C354.977 51.4 359.057 46.84 359.057 40C359.057 33.16 354.977 28.6 348.857 28.6C342.677 28.6 338.537 33.16 338.537 40C338.537 46.84 342.677 51.4 348.857 51.4ZM387.976 24.4C396.736 24.4 402.616 30.64 402.616 40C402.616 49.36 396.736 55.6 387.976 55.6C383.896 55.6 379.636 53.32 377.296 49.9V66.16H372.496V25H377.296V30.1C379.636 26.68 383.896 24.4 387.976 24.4ZM387.496 28.6C381.376 28.6 377.296 33.16 377.296 40C377.296 46.84 381.376 51.4 387.496 51.4C393.676 51.4 397.816 46.84 397.816 40C397.816 33.16 393.676 28.6 387.496 28.6Z" fill="white"/>
<path d="M70.1604 33.4345C71.9268 33.258 73.2299 31.6788 72.8999 29.9346C71.734 23.7724 69.0071 17.9917 64.9568 13.157C60.2163 7.4985 53.8825 3.39779 46.7794 1.38845C39.6764 -0.620884 32.133 -0.445825 25.1309 1.89085C18.1287 4.22753 11.9919 8.61763 7.51903 14.4899C3.04616 20.3622 0.444288 27.4448 0.051968 34.8162C-0.340352 42.1875 1.49505 49.5063 5.31934 55.8202C9.14363 62.1341 14.7798 67.1508 21.4944 70.2175C27.2314 72.8377 33.5288 73.9308 39.7793 73.4176C41.5485 73.2723 42.7248 71.5965 42.4256 69.8467C42.1265 68.0969 40.4645 66.9391 38.6929 67.0515C33.7198 67.3673 28.7276 66.454 24.165 64.3701C18.6243 61.8395 13.9735 57.6999 10.8178 52.4898C7.66205 47.2798 6.14752 41.2405 6.47126 35.1578C6.79499 29.0752 8.94199 23.2308 12.6329 18.3851C16.3238 13.5394 21.3877 9.91683 27.1657 7.98866C32.9438 6.06049 39.1684 5.91604 45.0296 7.57409C50.8909 9.23215 56.1174 12.6159 60.0291 17.2852C63.2503 21.1302 65.4571 25.7003 66.474 30.5785C66.8363 32.3163 68.3941 33.611 70.1604 33.4345Z" fill="#EEF2F1"/>
<circle cx="61" cy="55" r="18" fill="#EEF2F1"/>
</svg>
