<svg width="79" height="74" viewBox="0 0 79 74" fill="none" xmlns="http://www.w3.org/2000/svg">
<g id="Group 427320029">
<path id="Ellipse 435" d="M70.1604 33.4345C71.9268 33.258 73.2299 31.6788 72.8999 29.9346C71.734 23.7724 69.0071 17.9917 64.9568 13.157C60.2163 7.4985 53.8825 3.39779 46.7794 1.38845C39.6764 -0.620884 32.133 -0.445825 25.1309 1.89085C18.1287 4.22753 11.9919 8.61763 7.51903 14.4899C3.04616 20.3622 0.444288 27.4448 0.051968 34.8162C-0.340352 42.1875 1.49505 49.5063 5.31934 55.8202C9.14363 62.1341 14.7798 67.1508 21.4944 70.2175C27.2314 72.8377 33.5288 73.9308 39.7793 73.4176C41.5485 73.2723 42.7248 71.5965 42.4256 69.8467C42.1265 68.0969 40.4645 66.9391 38.6929 67.0515C33.7198 67.3673 28.7276 66.454 24.165 64.3701C18.6243 61.8395 13.9735 57.6999 10.8178 52.4898C7.66205 47.2798 6.14752 41.2405 6.47126 35.1578C6.79499 29.0752 8.94199 23.2308 12.6329 18.3851C16.3238 13.5394 21.3877 9.91683 27.1657 7.98866C32.9438 6.06049 39.1684 5.91604 45.0296 7.57409C50.8909 9.23215 56.1174 12.6159 60.0291 17.2852C63.2503 21.1302 65.4571 25.7003 66.474 30.5785C66.8363 32.3163 68.3941 33.611 70.1604 33.4345Z" fill="#EEF2F1"/>
<circle id="Ellipse 436" cx="61" cy="55" r="18" fill="#EEF2F1"/>
</g>
</svg>
