<svg width="32" height="32" viewBox="0 0 32 32" fill="none" xmlns="http://www.w3.org/2000/svg">
<g id="settings_black_24dp 1" clip-path="url(#clip0_1961_14084)">
<g id="Group">
<path id="Vector" d="M25.5195 17.2526C25.5728 16.8525 25.5995 16.4392 25.5995 15.9992C25.5995 15.5726 25.5728 15.1459 25.5062 14.7459L28.2128 12.6392C28.4528 12.4526 28.5195 12.0926 28.3728 11.8259L25.8128 7.39922C25.6528 7.10589 25.3195 7.01255 25.0262 7.10589L21.8395 8.38588C21.1728 7.87922 20.4662 7.45255 19.6795 7.13255L19.1995 3.74589C19.1462 3.42589 18.8795 3.19922 18.5595 3.19922H13.4395C13.1195 3.19922 12.8662 3.42589 12.8128 3.74589L12.3328 7.13255C11.5462 7.45255 10.8262 7.89255 10.1728 8.38588L6.98616 7.10589C6.69283 6.99922 6.3595 7.10589 6.1995 7.39922L3.65283 11.8259C3.49283 12.1059 3.54616 12.4526 3.81283 12.6392L6.5195 14.7459C6.45283 15.1459 6.3995 15.5859 6.3995 15.9992C6.3995 16.4126 6.42616 16.8525 6.49283 17.2526L3.78616 19.3592C3.54616 19.5459 3.4795 19.9059 3.62616 20.1726L6.18616 24.5992C6.34616 24.8926 6.6795 24.9859 6.97283 24.8926L10.1595 23.6126C10.8262 24.1192 11.5328 24.5459 12.3195 24.8659L12.7995 28.2526C12.8662 28.5726 13.1195 28.7992 13.4395 28.7992H18.5595C18.8795 28.7992 19.1462 28.5726 19.1862 28.2526L19.6662 24.8659C20.4528 24.5459 21.1728 24.1192 21.8262 23.6126L25.0128 24.8926C25.3062 24.9992 25.6395 24.8926 25.7995 24.5992L28.3595 20.1726C28.5195 19.8792 28.4528 19.5459 28.1995 19.3592L25.5195 17.2526ZM15.9995 20.7992C13.3595 20.7992 11.1995 18.6392 11.1995 15.9992C11.1995 13.3592 13.3595 11.1992 15.9995 11.1992C18.6395 11.1992 20.7995 13.3592 20.7995 15.9992C20.7995 18.6392 18.6395 20.7992 15.9995 20.7992Z" fill="#8866DD"/>
</g>
</g>
<defs>
<clipPath id="clip0_1961_14084">
<rect width="32" height="32" fill="white"/>
</clipPath>
</defs>
</svg>
