<svg width="162" height="56" viewBox="0 0 162 56" fill="none" xmlns="http://www.w3.org/2000/svg">
<g id="Group 296">
<g id="Group 223">
<g id="Group 94">
<g id="Group">
<path id="Vector" d="M96.1183 13.2679C95.202 12.756 94.1885 12.3436 93.0779 12.0307C91.995 11.6894 90.8843 11.3908 89.7459 11.1348C88.6353 10.8789 87.6218 10.5802 86.7055 10.2389C85.7892 9.86919 85.0534 9.38568 84.4981 8.78841C83.9428 8.19114 83.6651 7.39478 83.6651 6.39933C83.7207 5.26168 84.3038 4.33733 85.4144 3.6263C86.5528 2.91526 87.9967 2.55974 89.7459 2.55974C90.3013 2.55974 90.9399 2.64507 91.6618 2.81571C92.4115 2.95792 93.1334 3.22812 93.8276 3.6263C94.5217 3.99603 95.0909 4.5222 95.5352 5.20479C95.9794 5.88739 96.1738 6.76907 96.1183 7.84984H98.7422C98.7977 6.11492 98.4229 4.66441 97.6176 3.49831C96.8124 2.33221 95.7434 1.46475 94.4106 0.89592C93.0779 0.29865 91.6063 1.52588e-05 89.9958 1.52588e-05C88.3021 1.52588e-05 86.7749 0.255988 85.4144 0.767933C84.0539 1.25144 82.971 1.94825 82.1658 2.85838C81.3605 3.7685 80.9302 4.8635 80.8746 6.14336C80.8191 7.48011 81.0551 8.58932 81.5827 9.47101C82.1102 10.3242 82.8322 11.0068 83.7484 11.5188C84.6647 12.0307 85.6643 12.4574 86.7472 12.7987C87.8578 13.1115 88.9685 13.4101 90.0791 13.6946C91.1898 13.979 92.2032 14.306 93.1195 14.6758C94.0636 15.0171 94.8133 15.5006 95.3686 16.1263C95.9239 16.7236 96.1877 17.5199 96.1599 18.5154C96.1599 18.7998 96.0766 19.1695 95.91 19.6246C95.7434 20.0512 95.438 20.4921 94.9937 20.9471C94.5772 21.3737 93.9664 21.7435 93.1612 22.0563C92.3837 22.3407 91.3841 22.483 90.1624 22.483C88.6908 22.483 87.483 22.3123 86.5389 21.971C85.5949 21.6297 84.8591 21.2031 84.3315 20.6911C83.804 20.1792 83.4152 19.653 83.1653 19.1126C82.9432 18.5723 82.8044 18.103 82.7489 17.7048C82.6933 17.3066 82.6656 17.0649 82.6656 16.9795H80C80 18.3732 80.2777 19.5819 80.833 20.6058C81.4161 21.6297 82.1796 22.4687 83.1237 23.1229C84.0955 23.7486 85.1645 24.2179 86.3307 24.5307C87.5246 24.8436 88.7325 25 89.9542 25C91.6479 25 93.1612 24.7583 94.4939 24.2748C95.8267 23.7628 96.8957 23.0518 97.7009 22.1417C98.5062 21.2031 98.9365 20.0654 98.9921 18.7287C99.0476 17.3635 98.8116 16.2401 98.284 15.3584C97.7565 14.4767 97.0346 13.7799 96.1183 13.2679Z" fill="white"/>
<path id="Vector_2" d="M127.314 7.45947C126.494 7.76578 125.816 8.18347 125.28 8.71255C124.771 9.21377 124.376 9.78462 124.093 10.4251C123.935 10.7815 123.816 11.1379 123.732 11.4944L123.458 7.00002H121V24H123.712V16.0639C123.712 15.1728 123.797 14.3514 123.966 13.5995C124.136 12.8477 124.446 12.2072 124.898 11.6781C125.35 11.1212 126 10.7035 126.847 10.4251C127.695 10.1188 128.797 9.96562 130.153 9.96562H131V7.00002H130.195C129.093 7.00002 128.133 7.15317 127.314 7.45947Z" fill="white"/>
<path id="Vector_3" d="M109.5 7.00002C107.611 7.00002 106.027 7.38757 104.749 8.16269C103.499 8.93781 102.555 10.0144 101.915 11.3924C101.305 12.7416 101 14.2919 101 16.0431C101 17.7943 101.305 19.3015 101.915 20.6507C102.555 22 103.499 23.0622 104.749 23.8373C106.027 24.6125 107.611 25 109.5 25C111.389 25 113.045 24.6125 114.295 23.8373C115.544 23.0335 116.474 21.957 117.085 20.6077C117.695 19.2584 118 17.7369 118 16.0431C118 13.3158 117.274 11.134 115.821 9.49762C114.368 7.83255 112.261 7.00002 109.5 7.00002ZM114.731 19.1005C114.411 20.1053 113.844 20.9378 113.031 21.5981C112.217 22.2584 111.04 22.5885 109.5 22.5885C107.96 22.5885 106.841 22.2584 105.969 21.5981C105.126 20.9378 104.545 20.1053 104.226 19.1005C103.906 18.067 103.746 17.0192 103.746 15.957C103.746 14.8948 103.906 13.8469 104.226 12.8134C104.545 11.7799 105.126 10.933 105.969 10.2727C106.841 9.61246 108.018 9.28231 109.5 9.28231C110.982 9.28231 112.217 9.61246 113.031 10.2727C113.844 10.933 114.411 11.7799 114.731 12.8134C115.079 13.8469 115.254 14.8948 115.254 15.957C115.254 17.0192 115.079 18.067 114.731 19.1005Z" fill="white"/>
<path id="Vector_4" d="M145.821 9.49762C144.368 7.83255 142.261 7.00002 139.5 7.00002C137.611 7.00002 136.027 7.38757 134.749 8.16269C133.499 8.93781 132.555 10.0144 131.915 11.3924C131.305 12.7416 131 14.2919 131 16.0431C131 17.7943 131.305 19.3015 131.915 20.6507C132.555 22 133.499 23.0622 134.749 23.8373C136.027 24.6125 137.611 25 139.5 25C141.389 25 143.045 24.6125 144.295 23.8373C145.544 23.0335 146.474 21.957 147.085 20.6077C147.695 19.2584 148 17.7369 148 16.0431C148 13.3158 147.274 11.134 145.821 9.49762ZM144.731 19.1005C144.411 20.1053 143.844 20.9378 143.031 21.5981C142.217 22.2584 141.04 22.5885 139.5 22.5885C137.96 22.5885 136.841 22.2584 135.969 21.5981C135.126 20.9378 134.545 20.1053 134.226 19.1005C133.906 18.067 133.746 17.0192 133.746 15.957C133.746 14.8948 133.906 13.8469 134.226 12.8134C134.545 11.7799 135.126 10.933 135.969 10.2727C136.841 9.61246 138.018 9.28231 139.5 9.28231C140.982 9.28231 142.217 9.61246 143.031 10.2727C143.844 10.933 144.411 11.7799 144.731 12.8134C145.079 13.8469 145.254 14.8948 145.254 15.957C145.254 17.0192 145.079 18.067 144.731 19.1005Z" fill="white"/>
</g>
<g id="Group_2">
<path id="Vector_5" d="M85.6802 34.211C86.0849 33.8807 86.7498 33.7156 87.6748 33.7156C88.1084 33.7156 88.5275 33.7707 88.9322 33.8808C89.3659 33.9633 89.7561 34.1009 90.103 34.2936C90.4499 34.4863 90.7245 34.7615 90.9268 35.1193C91.1581 35.4771 91.2593 35.9312 91.2304 36.4817H96C95.9711 35.3807 95.7398 34.4174 95.3062 33.5918C94.8726 32.7661 94.2656 32.0918 93.4851 31.5688C92.7046 31.0459 91.8085 30.6606 90.7967 30.4129C89.785 30.1376 88.6865 30 87.5013 30C85.42 30 83.7001 30.3991 82.3415 31.1973C81.0117 31.9954 80.3469 33.2202 80.3469 34.8716C80.318 35.9725 80.5492 36.867 81.0406 37.5551C81.561 38.2156 82.2258 38.7523 83.0352 39.1652C83.8446 39.5505 84.6974 39.867 85.5935 40.1147C86.5185 40.3624 87.3857 40.5963 88.1951 40.8165C89.0045 41.0367 89.6549 41.2982 90.1463 41.6009C90.6667 41.8762 90.9268 42.2752 90.9268 42.7982C90.9557 43.0184 90.8835 43.2523 90.71 43.5C90.5366 43.7477 90.2475 43.9679 89.8428 44.1606C89.4381 44.3257 88.8889 44.4083 88.1951 44.4083C87.299 44.4083 86.6197 44.2707 86.1572 43.9954C85.6947 43.7202 85.3622 43.4174 85.1599 43.0872C84.9865 42.7294 84.8853 42.4129 84.8564 42.1376C84.8275 41.8349 84.813 41.6697 84.813 41.6422H80C80 42.7156 80.2023 43.6239 80.607 44.367C81.0406 45.1101 81.6043 45.7294 82.2981 46.2248C82.9919 46.6927 83.7145 47.0642 84.4661 47.3395C85.2466 47.5872 85.9837 47.7523 86.6775 47.8349C87.3713 47.945 87.9205 48 88.3252 48C89.8862 48 91.2304 47.8211 92.3577 47.4633C93.4851 47.078 94.3523 46.5275 94.9593 45.8119C95.5953 45.0963 95.9133 44.2019 95.9133 43.1285C95.9133 42.0551 95.6531 41.2431 95.1328 40.6101C94.6125 39.9496 93.9476 39.4266 93.1382 39.0413C92.3288 38.656 91.4472 38.3395 90.4932 38.0918C89.5682 37.8441 88.701 37.6101 87.8916 37.3899C87.0822 37.1697 86.4173 36.9083 85.897 36.6055C85.3767 36.2752 85.1165 35.8211 85.1165 35.2431C85.1165 34.8578 85.3044 34.5138 85.6802 34.211Z" fill="#8866DD"/>
<path id="Vector_6" d="M114.703 43.8527H114.619L111.097 31H106.777L103.423 43.8527H103.339L100.99 31H96V31.8213L99.7323 48H106.903L108.916 39.5821H109L111.139 48H118.184L122 31.8213V31H117.052L114.703 43.8527Z" fill="#8866DD"/>
<path id="Vector_7" d="M136.596 34.3617H136.508C136.45 34.2766 136.32 34.0638 136.116 33.7234C135.913 33.3546 135.593 32.9575 135.157 32.5319C134.751 32.1064 134.184 31.7518 133.458 31.4681C132.731 31.156 131.816 31 130.712 31C129.085 31 127.777 31.383 126.789 32.149C125.831 32.8865 125.119 33.9362 124.654 35.2979C124.218 36.6596 124 38.2482 124 40.0638C124 41.8794 124.218 43.4539 124.654 44.7872C125.09 46.1206 125.801 47.156 126.789 47.8936C127.777 48.6312 129.085 49 130.712 49C131.787 49 132.688 48.8582 133.414 48.5745C134.14 48.3192 134.722 48.0071 135.157 47.6383C135.593 47.2695 135.913 46.9291 136.116 46.617C136.349 46.2766 136.479 46.0497 136.508 45.9362H136.596L137.424 48.5745H142V31.0426H136.596V34.3617ZM136.291 42.4043C136.116 43.1135 135.768 43.6809 135.245 44.1064C134.722 44.5036 133.937 44.7021 132.891 44.7021C131.845 44.7021 131.046 44.4894 130.494 44.0638C129.971 43.6383 129.622 43.0851 129.448 42.4043C129.274 41.6951 129.186 40.9291 129.186 40.1064C129.186 39.2837 129.274 38.5319 129.448 37.8511C129.622 37.1419 129.971 36.5745 130.494 36.149C131.046 35.7234 131.845 35.5107 132.891 35.5107C133.937 35.5107 134.722 35.7092 135.245 36.1064C135.768 36.5036 136.116 37.0568 136.291 37.766C136.465 38.4752 136.552 39.2553 136.552 40.1064C136.552 40.9575 136.465 41.6951 136.291 42.4043Z" fill="#8866DD"/>
<path id="Vector_8" d="M161.321 35.1874C160.868 33.8331 160.118 32.7966 159.071 32.078C158.024 31.3593 156.623 31 154.868 31C153.764 31 152.858 31.1659 152.151 31.4975C151.443 31.8292 150.892 32.2162 150.495 32.6584C150.099 33.1006 149.816 33.5014 149.646 33.8607C149.476 34.1924 149.392 34.372 149.392 34.3997H149.307L148.458 31H144V56H149.307V45.3864H149.392C149.392 45.4417 149.476 45.6352 149.646 45.9668C149.844 46.2709 150.156 46.6164 150.58 47.0033C151.005 47.3903 151.557 47.7358 152.236 48.0398C152.943 48.3439 153.821 48.4959 154.868 48.4959C156.594 48.4959 157.981 48.1504 159.028 47.4594C160.075 46.7684 160.825 45.7872 161.278 44.5158C161.759 43.2167 162 41.6689 162 39.8723C162 38.0757 161.774 36.5141 161.321 35.1874ZM156.778 42.0282C156.608 42.6916 156.241 43.2443 155.675 43.6866C155.137 44.1288 154.316 44.3499 153.212 44.3499C152.193 44.3499 151.387 44.1426 150.792 43.728C150.226 43.3134 149.83 42.7745 149.604 42.1111C149.406 41.4201 149.307 40.66 149.307 39.8309C149.307 39.0017 149.406 38.283 149.604 37.5921C149.83 36.9011 150.226 36.3621 150.792 35.9751C151.358 35.5882 152.151 35.3947 153.17 35.3947C154.274 35.3947 155.094 35.602 155.632 36.0166C156.198 36.4312 156.58 36.984 156.778 37.675C156.976 38.3383 157.075 39.057 157.075 39.8309C157.075 40.6048 156.976 41.3372 156.778 42.0282Z" fill="#8866DD"/>
</g>
</g>
</g>
<g id="Group 288">
<path id="Vector_9" d="M32.9975 14.8043C31.8345 15.0064 30.6808 15.2207 29.5458 15.4473C29.1373 15.5269 28.7288 15.6096 28.3235 15.6953C27.1729 15.9342 26.0347 16.1883 24.9216 16.4547C24.4944 16.5558 24.2231 16.9691 24.3011 17.3917L24.5006 18.4971C24.5848 18.9655 25.0525 19.2626 25.5202 19.1493C26.5991 18.8921 27.6967 18.644 28.813 18.4113C29.2184 18.3256 29.6237 18.2429 30.0353 18.1602C31.1734 17.9337 32.324 17.7162 33.4871 17.5172C40.5559 16.2924 47.3659 15.6892 53.0939 15.7566C54.388 15.7719 55.6259 15.8178 56.7983 15.9036C56.9479 15.9158 57.0945 15.9281 57.2379 15.9372C63.9669 16.4853 66.028 18.0378 66.1807 18.8859C66.3335 19.7341 64.9366 21.8805 58.8032 24.6547C58.8157 23.7759 58.7783 22.891 58.6847 22C58.6286 21.409 58.5444 20.8211 58.4384 20.2271C58.3667 19.829 58.2856 19.434 58.1952 19.0452C58.1141 18.6991 57.8054 18.4481 57.4437 18.4236L55.2704 18.2766C54.706 18.2398 54.2632 18.7543 54.4035 19.2901C54.5407 19.8045 54.6561 20.3281 54.7528 20.864C54.9149 21.7673 55.0147 22.6675 55.0459 23.5616C55.0833 24.4526 55.0584 25.3406 54.971 26.2163C54.9461 26.4735 54.9149 26.7307 54.8806 26.9879L54.8744 27.04C54.7653 27.8239 54.6062 28.5985 54.4067 29.3548C54.1385 30.3745 53.783 31.3666 53.3559 32.3188C50.7179 38.2438 45.2019 42.8092 38.2454 44.0156C31.4011 45.2006 24.7345 42.8613 20.1945 38.3295C20.0354 38.1703 19.8172 38.0784 19.5896 38.0815L16.8269 38.1152C16.1253 38.1244 15.7449 38.9297 16.1939 39.4594C21.5446 45.764 30.0914 49.1628 38.8939 47.638C48.3107 46.0059 55.4949 39.1777 57.9146 30.6868C58.189 29.7376 58.3979 28.77 58.5444 27.781C58.8843 27.6371 59.2211 27.4932 59.5485 27.3492C66.3148 24.3638 69.4704 21.3539 68.9434 18.4083C68.4165 15.4626 64.4003 13.6959 57.0041 13.16C56.6455 13.1355 56.2807 13.111 55.9096 13.0927C54.5064 13.0192 53.0191 12.9885 51.4694 13.0039C45.9316 13.0559 39.5643 13.6683 32.9975 14.8074V14.8043Z" fill="#8866DD"/>
<path id="Vector_10" d="M12.0045 34.8386C12.3631 34.8631 12.7279 34.8876 13.0989 34.906C14.502 34.9826 15.9862 35.0132 17.5358 34.9948C23.0733 34.9428 29.4433 34.3303 36.0097 33.1912C37.1727 32.9891 38.3294 32.7748 39.4644 32.5451C39.8728 32.4655 40.2813 32.3828 40.6866 32.2971C41.8403 32.0582 42.9752 31.8041 44.0883 31.5377C44.5155 31.4366 44.7867 31.0232 44.7088 30.6007L44.5092 29.4952C44.425 29.0267 43.9574 28.7297 43.4897 28.843C42.4108 29.1002 41.3102 29.3482 40.1971 29.581C39.7918 29.6667 39.3864 29.7524 38.9749 29.8321C37.8368 30.0587 36.6863 30.2761 35.5202 30.4782C28.4518 31.703 21.639 32.3093 15.9113 32.242C14.6174 32.2236 13.3796 32.1746 12.2072 32.0888C12.0607 32.0766 11.911 32.0644 11.7676 32.0552C5.04215 31.507 2.97806 29.9576 2.82528 29.1094C2.6725 28.2612 4.07246 26.1116 10.2024 23.3373C10.1899 24.2161 10.2273 25.1011 10.3208 25.9952C10.377 26.5862 10.4612 27.1772 10.5672 27.7712C10.6389 28.1693 10.7199 28.5613 10.8104 28.9502C10.8914 29.2962 11.2001 29.5473 11.5618 29.5718L13.7319 29.7188C14.2962 29.7555 14.739 29.2411 14.5987 28.7052C14.4615 28.1908 14.3461 27.6671 14.2495 27.1343C14.0873 26.231 13.9907 25.3246 13.9533 24.4305C13.919 23.5363 13.947 22.6514 14.0312 21.7786C14.131 20.713 14.3243 19.6658 14.5924 18.6461C14.8637 17.6295 15.2129 16.6404 15.6401 15.6881C18.2747 9.75672 23.7904 5.18801 30.7559 3.98153C37.5998 2.79649 44.2598 5.1329 48.7995 9.66485C48.9586 9.82408 49.1768 9.91595 49.4044 9.91288L52.1732 9.88226C52.8747 9.87308 53.2551 9.06774 52.8061 8.53799C47.4557 2.23612 38.9063 -1.16285 30.1043 0.362095C20.688 1.99421 13.5043 8.82583 11.0847 17.3141C10.8135 18.2633 10.6015 19.231 10.4549 20.217C10.1119 20.3578 9.77832 20.5017 9.44782 20.6457C2.68809 23.6312 -0.470398 26.6383 0.0565376 29.5871C0.583469 32.5359 4.60252 34.2966 11.9952 34.8325L12.0045 34.8386Z" fill="#8866DD"/>
</g>
</g>
</svg>
