<svg width="295" height="54" viewBox="0 0 295 54" fill="none" xmlns="http://www.w3.org/2000/svg">
<path d="M16.0456 42.6C6.62563 42.6 0.385625 36.72 0.385625 27.84H5.48563C5.48563 33.84 9.68563 37.8 16.0456 37.8C21.8656 37.8 25.7056 34.8 25.7056 30.3C25.7056 27.12 22.8256 25.08 15.3856 22.92C6.38563 20.28 2.84563 17.1 2.84563 11.76C2.84563 4.86 8.12563 0.239998 16.0456 0.239998C23.8456 0.239998 29.6656 5.16 30.6856 12.48L25.9456 13.62C25.0456 8.46 21.0856 5.04 16.0456 5.04C11.3656 5.04 8.24563 7.74 8.24563 11.76C8.24563 14.52 10.5856 16.2 16.6456 17.94C27.0856 21.12 31.1056 24.6 31.1056 30.3C31.1056 37.68 25.1056 42.6 16.0456 42.6ZM53.6042 42.6C44.5442 42.6 38.5442 36.36 38.5442 27C38.5442 17.64 44.5442 11.4 53.6042 11.4C62.6642 11.4 68.6642 17.64 68.6642 27C68.6642 36.36 62.6642 42.6 53.6042 42.6ZM53.6042 38.4C59.7842 38.4 63.8642 33.84 63.8642 27C63.8642 20.16 59.7842 15.6 53.6042 15.6C47.4242 15.6 43.3442 20.16 43.3442 27C43.3442 33.84 47.4242 38.4 53.6042 38.4ZM78.6228 42V12H83.4228V16.02C85.6428 13.26 89.4228 11.4 92.9028 11.4C100.823 11.4 106.103 16.62 106.103 24.48H101.603C101.603 19.14 97.9428 15.6 92.4228 15.6C87.0228 15.6 83.4228 19.14 83.4228 24.48V42H78.6228ZM128.721 42.6C119.661 42.6 113.661 36.36 113.661 27C113.661 17.64 119.661 11.4 128.721 11.4C137.781 11.4 143.781 17.64 143.781 27C143.781 36.36 137.781 42.6 128.721 42.6ZM128.721 38.4C134.901 38.4 138.981 33.84 138.981 27C138.981 20.16 134.901 15.6 128.721 15.6C122.541 15.6 118.461 20.16 118.461 27C118.461 33.84 122.541 38.4 128.721 38.4ZM166.28 42.6C157.94 42.6 152.3 38.28 152.18 31.8H156.68C156.8 35.76 160.64 38.4 166.28 38.4C171.56 38.4 175.04 36.48 175.04 33.54C175.04 31.08 172.82 29.82 165.86 28.32C156.62 26.4 154.28 24.72 154.28 19.74C154.28 14.4 158.6 11.4 166.28 11.4C171.92 11.4 176.78 14.4 178.4 18.84L174.08 19.98C173 17.34 169.88 15.6 166.28 15.6C161.66 15.6 159.02 16.92 159.02 19.26C159.02 21.66 160.58 22.62 166.82 23.94C176.66 25.86 179.78 28.14 179.78 33.42C179.78 38.94 174.38 42.6 166.28 42.6ZM192.199 42L187.879 12H192.679L194.779 27.54L195.799 36.72L201.139 14.04H206.539L211.819 36.72L212.839 27.54L214.939 12H219.739L215.479 42H208.939L203.839 20.1L198.679 42H192.199ZM240.377 42.6C231.617 42.6 225.737 36.36 225.737 27C225.737 17.64 231.617 11.4 240.377 11.4C244.457 11.4 248.717 13.68 251.057 17.04V12H255.857V42H251.057V36.96C248.717 40.32 244.457 42.6 240.377 42.6ZM240.857 38.4C246.977 38.4 251.057 33.84 251.057 27C251.057 20.16 246.977 15.6 240.857 15.6C234.677 15.6 230.537 20.16 230.537 27C230.537 33.84 234.677 38.4 240.857 38.4ZM279.976 11.4C288.736 11.4 294.616 17.64 294.616 27C294.616 36.36 288.736 42.6 279.976 42.6C275.896 42.6 271.636 40.32 269.296 36.9V53.16H264.496V12H269.296V17.1C271.636 13.68 275.896 11.4 279.976 11.4ZM279.496 15.6C273.376 15.6 269.296 20.16 269.296 27C269.296 33.84 273.376 38.4 279.496 38.4C285.676 38.4 289.816 33.84 289.816 27C289.816 20.16 285.676 15.6 279.496 15.6Z" fill="white"/>
</svg>
