<svg width="32" height="32" viewBox="0 0 32 32" fill="none" xmlns="http://www.w3.org/2000/svg">
<g id="iconoir:coins-swap">
<g id="Group">
<path id="Vector" d="M12.0257 11.999C11.8895 10.2333 12.2975 8.46828 13.1948 6.94148C14.0921 5.41468 15.4356 4.19941 17.0445 3.45925C18.6534 2.7191 20.4504 2.48958 22.1936 2.80159C23.9369 3.11361 25.5427 3.95218 26.7949 5.20443C28.0472 6.45668 28.8858 8.06251 29.1978 9.80576C29.5098 11.549 29.2803 13.346 28.5401 14.9549C27.7999 16.5637 26.5847 17.9072 25.0579 18.8045C23.5311 19.7018 21.766 20.1099 20.0003 19.9737" stroke="#FDFDFD" stroke-width="1.5" stroke-linecap="round" stroke-linejoin="round"/>
<path id="Vector_2" d="M29.3337 22.666C29.3337 23.7269 28.9122 24.7443 28.1621 25.4944C27.4119 26.2446 26.3945 26.666 25.3337 26.666H22.667M22.667 26.666L25.3337 23.9993M22.667 26.666L25.3337 29.3327M2.66699 9.33268C2.66699 8.27182 3.08842 7.2544 3.83857 6.50426C4.58871 5.75411 5.60613 5.33268 6.66699 5.33268H9.33366M9.33366 5.33268L6.66699 7.99935M9.33366 5.33268L6.66699 2.66602M11.3337 29.3327C9.03512 29.3327 6.83072 28.4196 5.2054 26.7943C3.58008 25.169 2.66699 22.9646 2.66699 20.666C2.66699 18.3675 3.58008 16.1631 5.2054 14.5378C6.83072 12.9124 9.03512 11.9993 11.3337 11.9993C13.6322 11.9993 15.8366 12.9124 17.4619 14.5378C19.0872 16.1631 20.0003 18.3675 20.0003 20.666C20.0003 22.9646 19.0872 25.169 17.4619 26.7943C15.8366 28.4196 13.6322 29.3327 11.3337 29.3327Z" stroke="#FDFDFD" stroke-width="1.5" stroke-linecap="round" stroke-linejoin="round"/>
</g>
</g>
</svg>
